<svg width="41" height="47" viewBox="0 0 41 47" fill="none" xmlns="http://www.w3.org/2000/svg">
<path d="M0.336304 45.2207C0.336304 45.2207 -0.0300664 45.2528 0.00198693 45.6193C0.0340397 45.9858 0.066093 46.3523 0.432463 46.3202C0.830887 46.6546 1.93 46.5584 2.29637 46.5264C3.67947 41.2351 17.7577 3.81124 18.6644 1.51606C18.9667 0.751001 17.8355 0.480701 17.4692 0.512766C15.303 1.07165 13.2009 2.36353 11.8637 3.95778C11.195 4.7549 12.7246 5.35964 13.0589 4.96108C14.0619 3.76539 15.0969 2.9362 16.5303 2.44145C3.99552 36.4065 3.05668 38.3352 0.702674 45.1886L0.336304 45.2207Z" fill="#FFFEF2"/>
<path d="M38.7667 0.126033C33.1429 -0.85899 22.5775 21.8546 21.7851 29.6793L16.8803 32.6937C16.1796 33.1243 17.3749 34.1276 18.0756 33.697L21.579 31.5438C21.3409 33.0419 21.1348 34.9065 21.263 36.3724C21.4553 38.5714 21.8399 42.9694 24.4686 43.478C28.1964 43.8903 45.5992 27.5951 39.0504 24.4752C34.4616 22.661 27.757 26.2022 23.8872 28.3874C24.6658 24.6262 25.8428 21.1995 27.3861 17.7407C28.6273 15.047 36.2342 0.716982 38.8629 1.22552C39.994 1.49583 39.4994 0.0619039 38.7667 0.126033ZM36.9163 25.4006C42.4759 25.6526 30.4085 39.6344 25.0732 41.9478C22.5406 42.5388 22.6323 35.1447 22.8705 33.6466L23.3147 30.284C26.8182 28.1309 30.72 26.3122 36.9163 25.4006Z" fill="#FFFEF2"/>
</svg>
