<?xml version="1.0" encoding="UTF-8"?>
<svg width="370px" height="194px" viewBox="0 0 370 194" version="1.1" xmlns="http://www.w3.org/2000/svg" xmlns:xlink="http://www.w3.org/1999/xlink">
    <!-- Generator: Sketch 54.1 (76490) - https://sketchapp.com -->
    <title>blob-2</title>
    <desc>Created with Sketch.</desc>
    <g id="Main" stroke="none" stroke-width="1" fill="none" fill-rule="evenodd">
        <g id="home" transform="translate(-735.000000, -1580.000000)" fill="#FFCCC9">
            <g id="images" transform="translate(135.000000, 1212.000000)">
                <g id="blob-2" transform="translate(600.000000, 368.000000)">
                    <path d="M108.228512,59.3973082 C125.156855,46.2136673 132.547531,-7.29916901 155.922223,0.837415277 C184.36865,11.1139554 188.313038,76.5505656 218.311078,85.5801494 C233.094352,90.3674498 244.707093,76.9330332 256.529181,68.8384562 C270.271441,59.3449867 283.54886,57.5193318 298.147015,64.6396094 C322.604624,76.8405972 351.570233,107.009619 363.569457,132.65538 C368.411829,143.119876 374.4607,160.865095 365.067104,170.287563 C355.076388,180.272464 336.713386,172.097876 326.478743,167.642812 C298.729362,155.798174 272.84813,147.6784 241.731819,171.099456 C229.260397,180.216366 216.074226,196.97348 200.484718,193.544359 C185.982624,190.054665 174.739704,171.397947 159.637148,165.051756 C124.725871,149.359283 92.3230484,185.988689 54.8339281,180.300807 C37.6298083,177.605425 15.0742498,166.858353 5.28813418,143.829129 C-2.37159786,125.494724 -3.37640207,96.0835491 13.6335055,90.6075206 C20.3726625,88.324601 26.8986243,91.6103695 34.0640154,88.6983203 C40.9214076,85.5659125 46.6825498,79.1052407 52.6082646,73.8655106 C60.9632391,67.0157445 66.893219,62.5264709 76.4481581,61.3112601 C87.3145132,60.2654616 97.94943,67.5087631 108.228512,59.3973082 C125.282243,46.334169 94.6247006,70.0372608 108.228512,59.3973082" id="blob"></path>
                </g>
            </g>
        </g>
    </g>
</svg>