<?xml version="1.0" encoding="UTF-8"?>
<svg width="270px" height="211px" viewBox="0 0 270 211" version="1.1" xmlns="http://www.w3.org/2000/svg" xmlns:xlink="http://www.w3.org/1999/xlink">
    <!-- Generator: Sketch 54.1 (76490) - https://sketchapp.com -->
    <title>blob-1</title>
    <desc>Created with Sketch.</desc>
    <g id="Main" stroke="none" stroke-width="1" fill="none" fill-rule="evenodd">
        <g id="home" transform="translate(-235.000000, -679.000000)" fill="#FFCCC9">
            <g id="bg">
                <g id="blobs" transform="translate(235.000000, 680.000000)">
                    <g id="blob-1">
                        <path d="M73.3432836,7.65834933 C95.8244543,16.2525763 111.853645,23.0678322 136.61194,22.168906 C157.581483,21.7289896 179.276552,15.8662908 200.686567,18.9443378 C236.930015,22.9131075 265.251015,50.5309451 268.791045,85.0479846 C271.262092,99.4397472 269.164668,118.462468 254.283582,126.96737 C238.856414,136.130559 224.27517,128.226967 209.955224,143.090211 C192.814854,160.550752 200.137478,213.845526 162.80597,210 C140.445347,207.409188 139.688848,181.758565 126.134328,170.902111 C107.071224,154.456492 100.78,167.133394 81,177.351248 C44.5346122,196.454257 28.4151874,176.189527 14.5074627,145.911708 C-1.46078103,109.251611 -2.4323743,83.3936352 3.2238806,43.9347409 C8.81229641,0.603275301 31.6604768,-8.84230093 73.3432836,7.65834933 Z" id="blob" transform="translate(135.000000, 105.000000) rotate(-180.000000) translate(-135.000000, -105.000000) "></path>
                    </g>
                </g>
            </g>
        </g>
    </g>
</svg>