<svg width="24" height="24" viewBox="0 0 24 24" fill="none" xmlns="http://www.w3.org/2000/svg">
<path fill-rule="evenodd" clip-rule="evenodd" d="M16.2 2H7.8C4.59675 2 2 4.59675 2 7.8V16.2C2 19.4 4.6 22 7.8 22H16.2C19.4033 22 22 19.4033 22 16.2V7.8C22 4.6 19.4 2 16.2 2ZM4 7.6C4 5.61177 5.61177 4 7.6 4H16.4C18.39 4 20 5.61 20 7.6V16.4C20 18.3882 18.3882 20 16.4 20H7.6C5.61 20 4 18.39 4 16.4V7.6ZM12 7C14.7614 7 17 9.23858 17 12C17 14.7614 14.7614 17 12 17C9.23858 17 7 14.7614 7 12C7 9.23858 9.23858 7 12 7ZM9 12C9 10.3431 10.3431 9 12 9C13.6569 9 15 10.3431 15 12C15 13.6569 13.6569 15 12 15C10.3431 15 9 13.6569 9 12Z" fill="#FFFEF2"/>
</svg>
