<svg width="36" height="18" viewBox="0 0 36 18" fill="none" xmlns="http://www.w3.org/2000/svg">
<path d="M26.5248 16.9379C26.4502 17.1244 26.2312 17.2408 25.868 17.2873C25.5298 17.332 25.189 17.3554 24.8478 17.3572C24.6613 17.3572 24.4377 17.3479 24.177 17.3292C24.2888 14.7207 24.3447 12.4381 24.3447 10.4814C24.3447 8.52487 24.382 6.64288 24.4565 4.8354C24.0277 6.13992 23.627 7.50018 23.2547 8.91618C22.8817 10.3325 22.5463 11.6322 22.2484 12.8153C21.9502 13.9988 21.6986 14.991 21.4938 15.792C21.2885 16.5933 21.1301 17.0312 21.0186 17.1056C20.9467 17.1785 20.8539 17.2273 20.7531 17.2454C20.647 17.2642 20.5394 17.2735 20.4317 17.2733C20.2204 17.2685 20.01 17.2451 19.8028 17.2034C19.4931 17.1508 19.1803 17.1181 18.8665 17.1056C18.8848 16.2487 18.8988 15.3264 18.9084 14.3385C18.9176 13.3511 18.9222 12.3635 18.9224 11.3758C18.4935 11.3575 18.0556 11.3481 17.6087 11.3478H16.323C16.3413 11.702 16.3506 12.0701 16.3509 12.4519V13.5839C16.3509 14.4599 16.3323 15.2425 16.295 15.9317C16.2575 16.6213 16.1829 17.0033 16.0714 17.0776C15.9798 17.1399 15.8742 17.1783 15.764 17.1895C15.6251 17.2085 15.485 17.2179 15.3447 17.2174C15.0836 17.2174 14.8134 17.2034 14.5342 17.1755C14.2547 17.1475 14.0497 17.1336 13.9193 17.1336H13.8354C13.9097 15.792 13.9609 14.6972 13.9891 13.8494C14.0171 13.0017 14.0311 12.1772 14.0311 11.3758C13.6398 11.3758 13.2578 11.3804 12.8851 11.3898C12.5121 11.3994 12.1581 11.404 11.823 11.4038V12.6615C11.823 13.3511 11.8276 14.0173 11.837 14.6599C11.8461 15.3028 11.8508 15.8106 11.8509 16.1833V16.5606C11.8589 16.6225 11.8492 16.6855 11.823 16.7422C11.7811 16.858 11.7103 16.9611 11.6174 17.0418C11.5244 17.1225 11.4124 17.1781 11.2919 17.2034C10.7376 17.2939 10.1765 17.336 9.61491 17.3292C9.59613 16.9196 9.58682 16.5329 9.58697 16.1693V15.1211C9.58697 14.3944 9.59163 13.7376 9.60094 13.1506C9.61011 12.5637 9.62408 12.0093 9.64286 11.4876C9.25156 11.5064 8.90218 11.5204 8.59472 11.5295C8.28727 11.5391 8.04038 11.5438 7.85405 11.5435C7.64878 11.8789 7.40655 12.2935 7.12733 12.7873C6.84783 13.2812 6.57299 13.789 6.3028 14.3106C6.03247 14.8325 5.7716 15.3402 5.52019 15.8339C5.26864 16.3278 5.06833 16.7517 4.91926 17.1056C4.8222 17.0867 4.72425 17.0728 4.62578 17.0637C4.52315 17.0545 4.41601 17.0498 4.30436 17.0497C3.90963 17.0607 3.51672 17.1075 3.13044 17.1895C3.04883 16.7047 2.89823 16.2341 2.68324 15.792C2.58977 15.6243 2.40809 15.3261 2.1382 14.8975C1.86787 14.4691 1.58371 14.0219 1.28572 13.5559C0.987436 13.0904 0.712591 12.6572 0.46118 12.2563C0.291572 12.0198 0.155209 11.7611 0.0559044 11.4876C0.0376324 11.4328 0.023615 11.3768 0.013977 11.3199C0.00476914 11.2644 9.46636e-05 11.2084 0 11.1522C0.00206509 10.9526 0.0350662 10.7546 0.0978264 10.5652C0.169535 10.3444 0.258312 10.1294 0.363353 9.92237C0.319343 9.82873 0.286508 9.73022 0.265527 9.6289C0.237264 9.50513 0.223199 9.37854 0.223601 9.25159C0.225595 9.04081 0.244288 8.83052 0.279506 8.6227C0.318608 8.38147 0.374647 8.14329 0.447206 7.90993C0.540229 7.6121 0.698615 7.1975 0.922363 6.66614C1.14596 6.13512 1.40218 5.53885 1.691 4.87733C1.97967 4.21614 2.29643 3.50342 2.6413 2.73916C2.98588 1.97531 3.31663 1.21133 3.63354 0.447235C3.9419 0.449063 4.25003 0.430377 4.5559 0.391302C4.90511 0.33929 5.25056 0.2646 5.59006 0.167708C6.0988 1.51698 6.53269 2.89329 6.88975 4.29038C7.30901 5.88353 7.69566 7.54659 8.04969 9.27954C8.2773 9.30089 8.50588 9.31022 8.73447 9.30748C9.02315 9.30748 9.34458 9.3168 9.69876 9.33543V9C9.69876 8.3851 9.6941 7.65373 9.68478 6.8059C9.67518 5.95821 9.67052 5.13368 9.67081 4.33231C9.67081 3.45668 9.68478 2.67407 9.71274 1.9845C9.74068 1.29532 9.80124 0.885371 9.89441 0.754655C10.0167 0.594141 10.1976 0.488615 10.3975 0.46118C10.8958 0.373735 11.401 0.331639 11.9068 0.33541C11.8881 0.894421 11.8694 1.43945 11.8509 1.9705C11.8322 2.50157 11.8228 3.02797 11.823 3.54971C11.823 4.46288 11.8323 5.334 11.8509 6.16306C11.8693 6.9924 11.8786 7.77034 11.8789 8.49688V9.36336C12.2326 9.36336 12.5913 9.36802 12.955 9.37735C13.3183 9.38695 13.677 9.3916 14.0311 9.3913C14.0311 7.28587 14.0171 5.6601 13.9891 4.51397C13.9612 3.36801 13.9472 2.52485 13.9472 1.9845C13.9358 1.66202 13.9545 1.33918 14.0031 1.02019C14.0292 0.879033 14.1095 0.753667 14.2267 0.670824C14.3473 0.579426 14.4947 0.530306 14.646 0.531061C14.8508 0.512714 15.0651 0.503399 15.2888 0.503116H16.1553C16.1553 0.857281 16.1506 1.21131 16.1413 1.5652C16.1317 1.91941 16.127 2.26414 16.1273 2.59939C16.1273 3.9969 16.146 5.25 16.1832 6.35871C16.2204 7.46753 16.2483 8.46908 16.2671 9.36336C16.7514 9.34501 17.2219 9.32638 17.6786 9.30747C18.135 9.28912 18.5495 9.2705 18.9224 9.25159C18.9224 8.56241 18.9177 7.88228 18.9084 7.21119C18.8988 6.54036 18.8941 5.90682 18.8944 5.31057C18.8944 4.02485 18.913 2.94876 18.9503 2.08233C18.9874 1.21585 19.0433 0.726703 19.118 0.614898C19.2406 0.458917 19.4134 0.350269 19.6071 0.307471C19.8309 0.250367 20.061 0.222177 20.2919 0.223591C20.478 0.223591 20.6643 0.23292 20.8509 0.251579C21.037 0.270325 21.1954 0.27964 21.3261 0.279522C21.2592 0.728716 21.2172 1.18126 21.2003 1.63509C21.1723 2.20369 21.1537 2.82792 21.1444 3.50777C21.1348 4.18819 21.1255 4.88695 21.1165 5.60405C21.1068 6.32157 21.1022 7.00635 21.1025 7.65839V9.89443C21.4938 8.6275 21.8665 7.42563 22.2205 6.28883C22.5742 5.15246 22.9003 4.16023 23.1988 3.31212C23.4966 2.46443 23.7621 1.77965 23.9953 1.25778C24.2281 0.736312 24.4005 0.447484 24.5124 0.3913C24.6236 0.344833 24.7416 0.316529 24.8618 0.307469C25.0242 0.288743 25.1875 0.279413 25.3509 0.279526C25.6488 0.279526 26.0774 0.307469 26.6366 0.363357C26.6179 1.03419 26.5992 1.77953 26.5808 2.5994C26.562 3.41954 26.5526 4.26736 26.5528 5.14286C26.5528 5.98136 26.5575 6.83385 26.5668 7.70033C26.5759 8.56676 26.5853 9.40061 26.5947 10.2019C26.6039 11.0033 26.6132 11.7766 26.6227 12.5218C26.6318 13.2672 26.6365 13.9287 26.6366 14.5062C26.6366 15.1958 26.6273 15.7548 26.6087 16.1833C26.6132 16.4374 26.5851 16.691 26.5248 16.9379ZM1.98447 10.0621C1.98447 10.3045 2.23137 10.8216 2.72516 11.6134C3.2416 12.4494 3.69472 13.323 4.08074 14.2267C4.42952 13.303 4.82602 12.3981 5.26864 11.5155C5.65033 10.7705 5.84133 10.2488 5.84162 9.95032V9.89443C5.81102 9.59311 5.75966 9.29426 5.6879 9.00001C5.58527 8.51568 5.46415 7.97532 5.32454 7.37891C5.18479 6.78276 5.04038 6.17251 4.89131 5.54817C4.74195 4.92408 4.62084 4.4163 4.52796 4.02485C4.22968 4.65854 3.93154 5.31071 3.63354 5.98136C3.33526 6.65219 3.06507 7.2671 2.82298 7.8261C2.5806 8.38511 2.38029 8.86959 2.22205 9.27954C2.10892 9.52887 2.02904 9.79199 1.98447 10.0621ZM31.3044 0.167708C31.424 0.226231 31.5509 0.268527 31.6817 0.293477C31.8151 0.320783 31.9508 0.334832 32.087 0.335417C32.2491 0.336376 32.4101 0.307974 32.5621 0.251586C32.7032 0.20106 32.8285 0.114293 32.9255 0C33.2233 0.950314 33.4982 1.82143 33.75 2.61335C34.0016 3.40559 34.2438 4.19286 34.4767 4.97516C34.7095 5.75777 34.9471 6.58231 35.1894 7.44879C35.4314 8.31523 35.7016 9.30746 36 10.4255C35.1056 12.755 34.3882 14.4599 33.8478 15.5404C33.3072 16.6213 32.9065 17.1896 32.646 17.2454C32.6113 17.2631 32.5731 17.2727 32.5342 17.2733H32.3944C32.0803 17.264 31.7693 17.2075 31.472 17.1056C31.1179 16.9938 30.8104 16.882 30.5497 16.7702C30.5174 16.3638 30.4133 15.9664 30.2422 15.5963C30.0502 15.157 29.8356 14.7278 29.5994 14.3106C29.357 13.8821 29.1054 13.4722 28.8447 13.0807C28.5836 12.6894 28.3786 12.3634 28.2298 12.1025C28.1333 11.9485 28.0536 11.7845 27.9922 11.6134C27.9508 11.5013 27.9273 11.3834 27.9224 11.264C27.9124 11.1071 27.9623 10.9522 28.0621 10.8308C28.1461 10.7405 28.221 10.6422 28.2857 10.5373C28.3074 10.492 28.3261 10.4453 28.3416 10.3975C28.358 10.3526 28.3674 10.3055 28.3696 10.2578C28.3683 10.143 28.3234 10.033 28.2438 9.95032C28.1496 9.8515 28.0279 9.78332 27.8944 9.75466C28.4534 8.37595 28.9146 7.19273 29.2779 6.20499C29.6413 5.21754 30.014 4.1694 30.396 3.06057C30.7777 1.95216 31.0805 0.987868 31.3044 0.167708ZM32.2267 4.2205C32.0031 4.85419 31.7609 5.49705 31.5 6.14907C31.2388 6.80155 30.9966 7.41646 30.7733 7.99381C30.5497 8.57161 30.3587 9.08403 30.2003 9.53107C30.0754 9.83462 29.9953 10.1548 29.9627 10.4814V10.5373C30.0154 10.802 30.1098 11.0567 30.2422 11.2919C30.4099 11.6273 30.6056 11.9767 30.8292 12.3401C31.0528 12.7034 31.2764 13.0714 31.5 13.4441C31.6882 13.7496 31.8563 14.067 32.0031 14.3944C32.2267 13.873 32.4363 13.3652 32.632 12.8711C32.8276 12.3777 33 11.9444 33.1491 11.5715C33.298 11.1989 33.4564 10.7796 33.6242 10.3137C33.3631 8.82315 33.0975 7.59334 32.8276 6.62425C32.5573 5.65559 32.357 4.85434 32.2267 4.2205Z" fill="#FFFEF2"/>
</svg>
