<?xml version="1.0" encoding="UTF-8"?>
<svg width="40px" height="16px" viewBox="0 0 40 16" version="1.1" xmlns="http://www.w3.org/2000/svg" xmlns:xlink="http://www.w3.org/1999/xlink">
    <!-- Generator: Sketch 54.1 (76490) - https://sketchapp.com -->
    <title>scribble</title>
    <desc>Created with Sketch.</desc>
    <g id="Main" stroke="none" stroke-width="1" fill="none" fill-rule="evenodd">
        <g id="home" transform="translate(-871.000000, -338.000000)" fill="#1D1D1B">
            <g id="intro" transform="translate(435.000000, 120.000000)">
                <path d="M439.605277,221.252641 C443.163581,220.146812 446.785833,220.07438 450.361442,219.829778 C455.041492,219.509709 459.725057,219.693635 464.406053,219.700082 C465.726136,219.701598 467.037296,219.714871 468.35454,219.454342 C469.520767,219.223392 470.763787,218.882087 471.902974,219.80892 C471.938396,219.426279 471.973818,219.044017 472.009241,218.661376 C460.880603,219.016333 449.780492,221.766116 438.648879,221.910602 C438.279381,221.915532 438.150941,223.500326 438.561811,223.521942 C444.322101,223.824946 450.074144,222.631515 455.833893,222.793445 C461.602025,222.956134 467.347172,224.779463 473.115169,225.059333 C473.570654,225.081328 474.02641,225.082466 474.481896,225.080949 C474.50542,224.448776 474.528945,223.816223 474.55247,223.18405 C468.766086,223.261413 462.9747,223.29213 457.189264,223.599684 C454.311958,223.752513 451.43668,224.161321 448.566269,224.732059 C445.892708,225.263358 443.228206,226.114725 440.551806,226.513294 C439.099363,226.729454 437.604332,226.965333 436.222057,228.340414 C435.933407,228.62749 435.907178,229.991574 436.256262,230.060593 C442.000463,231.199794 447.758861,230.315814 453.509822,230.352978 C459.18088,230.389384 464.83558,231.847137 470.505692,231.990864 C471.441405,232.014755 472.377252,231.996173 473.312694,231.934738 C473.696119,231.909709 473.796437,229.923692 473.378942,229.923692 C467.79414,229.923313 462.19636,230.412138 456.613586,229.969958 C451.311215,229.550152 445.923939,228.324108 440.686329,231.36893 C440.376182,231.549443 440.281273,232.631001 440.628734,232.888497 C441.784821,233.745932 443.004857,233.564281 444.189606,233.574141 C445.614334,233.585897 447.038791,233.793335 448.464464,233.799403 C451.365024,233.811538 454.262745,233.654917 457.1629,233.854012 C462.947661,234.251443 468.740263,233.725074 474.52543,233.59955 C474.914397,233.591207 475.305258,233.55518 475.69409,233.577934 C476.019109,233.596895 476.137408,232.266184 475.787513,232.245705 C474.327634,232.16 472.871405,231.964697 471.410444,231.949907 C469.962057,231.935497 468.513534,232.004896 467.065282,232.059884 C464.181081,232.168722 461.296475,232.30221 458.411868,232.216884 C455.532535,232.131937 452.65915,232.111079 449.779545,232.198681 C448.340892,232.242672 446.902104,232.246464 445.463722,232.134971 C444.173247,232.034855 442.862087,232.247981 441.578372,231.825141 C441.302701,231.734506 441.031086,231.57523 440.763122,231.374618 C440.744059,231.881267 440.724725,232.387916 440.705527,232.894565 C445.921371,229.90966 451.276063,231.153149 456.552746,231.626805 C459.286741,231.872166 462.023846,231.788736 464.758787,231.832726 C467.57985,231.877854 470.401048,231.934738 473.222111,231.935118 C473.244149,231.264642 473.266321,230.594167 473.288359,229.924071 C467.570521,230.299128 461.866474,228.824689 456.15418,228.434084 C450.417279,228.041583 444.681055,229.13869 438.944289,228.625215 C438.0924,228.54899 437.241187,228.429154 436.390785,228.271395 C436.402277,228.844788 436.413634,229.41856 436.425126,229.991953 C437.5078,228.903189 438.669565,228.594497 439.809293,228.352171 C440.995529,228.099984 442.181765,227.93502 443.366515,227.622536 C446.235168,226.865596 449.108958,226.255418 451.986399,225.834096 C457.753584,224.989934 463.543483,225.092705 469.317293,225.055541 C471.038782,225.044543 472.760406,225.059333 474.481896,225.080949 C474.898985,225.086258 475.009713,223.19391 474.55247,223.18405 C468.688347,223.053975 462.849101,221.309905 456.988223,221.009935 C451.216711,220.714517 445.453582,222.051675 439.682611,221.950042 C439.338124,221.943974 438.993502,221.93146 438.648879,221.910602 C438.619812,222.447968 438.590879,222.984955 438.561811,223.521942 C449.730333,223.432824 460.86492,220.380796 472.030196,219.845705 C472.264767,219.834328 472.288291,218.872985 472.071973,218.700816 C470.99998,217.849069 469.873231,217.949185 468.771224,218.10429 C467.530232,218.279114 466.299515,218.366336 465.05663,218.369749 C462.167968,218.378472 459.278089,218.319691 456.389561,218.398192 C452.555452,218.5021 448.724452,218.795623 444.896832,219.459272 C443.125455,219.766446 441.34272,220.06907 439.584998,220.782019 C439.486573,220.821838 439.51199,221.281463 439.605277,221.252641" id="scribble"></path>
            </g>
        </g>
    </g>
</svg>